<svg xmlns="http://www.w3.org/2000/svg" viewBox="0 0 32 32" width="32" height="32">
  <defs>
    <linearGradient id="chatGrad" x1="0%" y1="0%" x2="0%" y2="100%">
      <stop offset="0%" style="stop-color:#4ECDC4"/>
      <stop offset="100%" style="stop-color:#2AB7CA"/>
    </linearGradient>
    <linearGradient id="chatHighlight" x1="0%" y1="0%" x2="0%" y2="100%">
      <stop offset="0%" style="stop-color:#FFFFFF;stop-opacity:0.5"/>
      <stop offset="60%" style="stop-color:#FFFFFF;stop-opacity:0"/>
    </linearGradient>
  </defs>
  <path d="M8 6 Q4 6 4 10 L4 16 Q4 20 8 20 L8 24 L12 20 L20 20 Q24 20 24 16 L24 10 Q24 6 20 6 Z" fill="#229E96"/>
  <path d="M12 10 Q8 10 8 14 L8 20 Q8 24 12 24 L20 24 L24 28 L24 24 Q28 24 28 20 L28 14 Q28 10 24 10 Z" fill="url(#chatGrad)"/>
  <path d="M12 10 Q8 10 8 14 L8 17 Q8 13 12 13 L24 13 Q28 13 28 17 L28 14 Q28 10 24 10 Z" fill="url(#chatHighlight)"/>
</svg>
