<svg xmlns="http://www.w3.org/2000/svg" viewBox="0 0 32 32" width="32" height="32">
  <defs>
    <linearGradient id="gameGrad" x1="0%" y1="0%" x2="0%" y2="100%">
      <stop offset="0%" style="stop-color:#AB47BC"/>
      <stop offset="100%" style="stop-color:#7B1FA2"/>
    </linearGradient>
    <linearGradient id="gameHighlight" x1="0%" y1="0%" x2="0%" y2="100%">
      <stop offset="0%" style="stop-color:#FFFFFF;stop-opacity:0.4"/>
      <stop offset="50%" style="stop-color:#FFFFFF;stop-opacity:0"/>
    </linearGradient>
  </defs>
  <path d="M4 12 Q4 8 8 8 L24 8 Q28 8 28 12 L28 20 Q28 24 24 24 L22 24 L20 28 L18 24 L14 24 L12 28 L10 24 L8 24 Q4 24 4 20 Z" fill="url(#gameGrad)"/>
  <rect x="7" y="14" width="3" height="7" rx="1" fill="#4A148C"/>
  <rect x="6" y="15.5" width="7" height="3" rx="1" fill="#4A148C"/>
  <circle cx="22" cy="13" r="2" fill="#E91E63"/>
  <circle cx="26" cy="16" r="2" fill="#4CAF50"/>
  <circle cx="22" cy="19" r="2" fill="#2196F3"/>
  <circle cx="18" cy="16" r="2" fill="#FFC107"/>
  <path d="M4 12 Q4 8 8 8 L24 8 Q28 8 28 12 L28 14 Q28 10 24 10 L8 10 Q4 10 4 14 Z" fill="url(#gameHighlight)"/>
</svg>
